<svg xmlns="http://www.w3.org/2000/svg" width="544" height="500" viewBox="0 0 544 500"><g id="Ebene_1" data-name="Ebene 1"><rect width="544" height="500" fill="#f6e5ac"/></g><g id="Ebene_2" data-name="Ebene 2"><rect x="308.092" y="34.916" width="12.13" height="22.5" fill="#fc8386"/><rect x="284.222" y="34.916" width="12.13" height="22.5" fill="#add64a"/><rect x="360.544" y="34.916" width="12.13" height="22.5" fill="#fc8386"/><rect x="336.074" y="34.916" width="12.13" height="22.5" fill="#add64a"/><rect x="411.231" y="34.916" width="8.183" height="22.5" fill="#fc8386"/><rect x="389.096" y="34.916" width="12.13" height="22.5" fill="#add64a"/><rect id="rect3471" x="119.674" y="82.485" width="77.163" height="25.721" fill="#add64a"/><path id="path3140" d="M119.674,82.485h77.163" fill="none" stroke="#333"/><path id="path3140-8" d="M119.674,133.927h77.163" fill="none" stroke="#333"/><path id="path3140-0" d="M119.674,108.206h77.163" fill="none" stroke="#333"/><path id="path3174" d="M119.674,82.485v51.442" fill="none" stroke="#333"/><path id="path3176" d="M145.4,82.485v51.442" fill="none" stroke="#333"/><path id="path3176-5" d="M171.116,82.485v51.442" fill="none" stroke="#333"/><path id="path3176-2" d="M196.837,82.485v51.442" fill="none" stroke="#333"/><rect id="rect3473" x="235.418" y="69.625" width="25.721" height="77.163" fill="#fc8386"/><path id="path3140-4" d="M235.418,69.625H286.86" fill="none" stroke="#333"/><path id="path3140-8-8" d="M235.418,121.067H286.86" fill="none" stroke="#333"/><path id="path3140-0-8" d="M235.418,95.346H286.86" fill="none" stroke="#333"/><path id="path3140-86-5" d="M235.418,146.788H286.86" fill="none" stroke="#333"/><path id="path3174-3" d="M235.418,69.625v77.163" fill="none" stroke="#333"/><path id="path3176-9" d="M261.139,69.625v77.163" fill="none" stroke="#333"/><path id="path3176-5-2" d="M286.86,69.625v77.163" fill="none" stroke="#333"/><rect id="rect3475" x="338.302" y="82.485" width="25.721" height="25.721" fill="#6dbbd3"/><path id="path3140-3" d="M338.3,82.485h51.442" fill="none" stroke="#333"/><path id="path3140-8-87" d="M338.3,133.927h51.442" fill="none" stroke="#333"/><path id="path3140-0-9" d="M338.3,108.206h51.442" fill="none" stroke="#333"/><path id="path3174-1" d="M338.3,82.485v51.442" fill="none" stroke="#333"/><path id="path3176-7" d="M364.023,82.485v51.442" fill="none" stroke="#333"/><path id="path3176-5-4" d="M389.744,82.485v51.442" fill="none" stroke="#333"/><g id="text3450" style="isolation:isolate"><g style="isolation:isolate"><path d="M216.4,108.271a2,2,0,0,1,.6,1.469,2.048,2.048,0,0,1-.6,1.485,2.01,2.01,0,0,1-1.5.615,1.972,1.972,0,0,1-1.469-.615,2.044,2.044,0,0,1-.6-1.485,2.051,2.051,0,0,1,2.069-2.07A2.036,2.036,0,0,1,216.4,108.271Z" fill="#333"/></g></g><g id="text3454"><g style="isolation:isolate"><path d="M309.179,105.086h11.13v2.13h-11.13Zm0,5.67h11.13v2.13h-11.13Z" fill="#333"/></g></g><rect id="rect3471-8" x="119.674" y="188.584" width="77.163" height="25.721" fill="#add64a"/><path id="path3140-5" d="M119.674,188.584h77.163" fill="none" stroke="#333"/><path id="path3140-8-9" d="M119.674,240.026h77.163" fill="none" stroke="#333"/><path id="path3140-0-7" d="M119.674,214.305h77.163" fill="none" stroke="#333"/><path id="path3174-5" d="M119.674,188.584v51.442" fill="none" stroke="#333"/><path id="path3176-3" d="M145.4,188.584v51.442" fill="none" stroke="#333"/><path id="path3176-5-8" d="M171.116,188.584v51.442" fill="none" stroke="#333"/><path id="path3176-2-8" d="M196.837,188.584v51.442" fill="none" stroke="#333"/><rect id="rect3473-3" x="261.139" y="175.724" width="25.721" height="77.163" fill="#fc8386"/><path id="path3140-4-1" d="M235.418,175.724H286.86" fill="none" stroke="#333"/><path id="path3140-8-8-8" d="M235.418,227.166H286.86" fill="none" stroke="#333"/><path id="path3140-0-8-9" d="M235.418,201.445H286.86" fill="none" stroke="#333"/><path id="path3140-86-5-6" d="M235.418,252.887H286.86" fill="none" stroke="#333"/><path id="path3174-3-4" d="M235.418,175.724v77.163" fill="none" stroke="#333"/><path id="path3176-9-3" d="M261.139,175.724v77.163" fill="none" stroke="#333"/><path id="path3176-5-2-3" d="M286.86,175.724v77.163" fill="none" stroke="#333"/><rect id="rect3475-3" x="364.023" y="188.584" width="25.721" height="25.721" fill="#6dbbd3"/><path id="path3140-3-8" d="M338.3,188.584h51.442" fill="none" stroke="#333"/><path id="path3140-8-87-6" d="M338.3,240.026h51.442" fill="none" stroke="#333"/><path id="path3140-0-9-0" d="M338.3,214.305h51.442" fill="none" stroke="#333"/><path id="path3174-1-4" d="M338.3,188.584v51.442" fill="none" stroke="#333"/><path id="path3176-7-8" d="M364.023,188.584v51.442" fill="none" stroke="#333"/><path id="path3176-5-4-8" d="M389.744,188.584v51.442" fill="none" stroke="#333"/><g id="text3450-6" style="isolation:isolate"><g style="isolation:isolate"><path d="M216.4,214.37a2,2,0,0,1,.6,1.469,2.046,2.046,0,0,1-.6,1.485,2.01,2.01,0,0,1-1.5.615,1.972,1.972,0,0,1-1.469-.615,2.042,2.042,0,0,1-.6-1.485,2.049,2.049,0,0,1,2.069-2.069A2.035,2.035,0,0,1,216.4,214.37Z" fill="#333"/></g></g><g id="text3454-3"><g style="isolation:isolate"><path d="M309.179,211.339h11.13v2.13h-11.13Zm0,5.67h11.13v2.131h-11.13Z" fill="#333"/></g></g><rect id="rect3471-3" x="119.674" y="320.404" width="77.163" height="25.721" fill="#add64a"/><path id="path3140-09" d="M119.674,294.683h77.163" fill="none" stroke="#333"/><path id="path3140-8-2" d="M119.674,346.125h77.163" fill="none" stroke="#333"/><path id="path3140-0-5" d="M119.674,320.4h77.163" fill="none" stroke="#333"/><path id="path3174-4" d="M119.674,294.683v51.442" fill="none" stroke="#333"/><path id="path3176-0" d="M145.4,294.683v51.442" fill="none" stroke="#333"/><path id="path3176-5-5" d="M171.116,294.683v51.442" fill="none" stroke="#333"/><path id="path3176-2-9" d="M196.837,294.683v51.442" fill="none" stroke="#333"/><rect id="rect3473-4" x="235.418" y="281.823" width="25.721" height="77.163" fill="#fc8386"/><path id="path3140-4-6" d="M235.418,281.823H286.86" fill="none" stroke="#333"/><path id="path3140-8-8-9" d="M235.418,333.264H286.86" fill="none" stroke="#333"/><path id="path3140-0-8-2" d="M235.418,307.544H286.86" fill="none" stroke="#333"/><path id="path3140-86-5-2" d="M235.418,358.985H286.86" fill="none" stroke="#333"/><path id="path3174-3-47" d="M235.418,281.823v77.162" fill="none" stroke="#333"/><path id="path3176-9-7" d="M261.139,281.823v77.162" fill="none" stroke="#333"/><path id="path3176-5-2-5" d="M286.86,281.823v77.162" fill="none" stroke="#333"/><rect id="rect3475-4" x="338.302" y="320.404" width="25.721" height="25.721" fill="#6dbbd3"/><path id="path3140-3-81" d="M338.3,294.683h51.442" fill="none" stroke="#333"/><path id="path3140-8-87-2" d="M338.3,346.125h51.442" fill="none" stroke="#333"/><path id="path3140-0-9-8" d="M338.3,320.4h51.442" fill="none" stroke="#333"/><path id="path3174-1-9" d="M338.3,294.683v51.442" fill="none" stroke="#333"/><path id="path3176-7-3" d="M364.023,294.683v51.442" fill="none" stroke="#333"/><path id="path3176-5-4-6" d="M389.744,294.683v51.442" fill="none" stroke="#333"/><g id="text3450-5" style="isolation:isolate"><g style="isolation:isolate"><path d="M216.4,320.469a2,2,0,0,1,.6,1.469,2.05,2.05,0,0,1-.6,1.486,2.009,2.009,0,0,1-1.5.614,1.971,1.971,0,0,1-1.469-.614,2.046,2.046,0,0,1-.6-1.486,2.051,2.051,0,0,1,2.069-2.07A2.032,2.032,0,0,1,216.4,320.469Z" fill="#333"/></g></g><g id="text3454-1"><g style="isolation:isolate"><path d="M309.179,317.438h11.13v2.13h-11.13Zm0,5.67h11.13v2.13h-11.13Z" fill="#333"/></g></g><rect id="rect3471-8-5" x="119.674" y="426.503" width="77.163" height="25.721" fill="#add64a"/><path id="path3140-5-0" d="M119.674,400.782h77.163" fill="none" stroke="#333"/><path id="path3140-8-9-6" d="M119.674,452.224h77.163" fill="none" stroke="#333"/><path id="path3140-0-7-4" d="M119.674,426.5h77.163" fill="none" stroke="#333"/><path id="path3174-5-6" d="M119.674,400.782v51.442" fill="none" stroke="#333"/><path id="path3176-3-2" d="M145.4,400.782v51.442" fill="none" stroke="#333"/><path id="path3176-5-8-5" d="M171.116,400.782v51.442" fill="none" stroke="#333"/><path id="path3176-2-8-8" d="M196.837,400.782v51.442" fill="none" stroke="#333"/><rect id="rect3473-3-6" x="261.139" y="387.921" width="25.721" height="77.163" fill="#fc8386"/><path id="path3140-4-1-2" d="M235.418,387.921H286.86" fill="none" stroke="#333"/><path id="path3140-8-8-8-8" d="M235.418,439.363H286.86" fill="none" stroke="#333"/><path id="path3140-0-8-9-4" d="M235.418,413.642H286.86" fill="none" stroke="#333"/><path id="path3140-86-5-6-7" d="M235.418,465.084H286.86" fill="none" stroke="#333"/><path id="path3174-3-4-2" d="M235.418,387.921v77.163" fill="none" stroke="#333"/><path id="path3176-9-3-4" d="M261.139,387.921v77.163" fill="none" stroke="#333"/><path id="path3176-5-2-3-0" d="M286.86,387.921v77.163" fill="none" stroke="#333"/><rect id="rect3475-3-6" x="364.023" y="426.503" width="25.721" height="25.721" fill="#6dbbd3"/><path id="path3140-3-8-2" d="M338.3,400.782h51.442" fill="none" stroke="#333"/><path id="path3140-8-87-6-9" d="M338.3,452.224h51.442" fill="none" stroke="#333"/><path id="path3140-0-9-0-9" d="M338.3,426.5h51.442" fill="none" stroke="#333"/><path id="path3174-1-4-0" d="M338.3,400.782v51.442" fill="none" stroke="#333"/><path id="path3176-7-8-8" d="M364.023,400.782v51.442" fill="none" stroke="#333"/><path id="path3176-5-4-8-1" d="M389.744,400.782v51.442" fill="none" stroke="#333"/><g id="text3450-6-3" style="isolation:isolate"><g style="isolation:isolate"><path d="M216.4,426.568a2,2,0,0,1,.6,1.47,2.049,2.049,0,0,1-.6,1.485,2.006,2.006,0,0,1-1.5.615,1.968,1.968,0,0,1-1.469-.615,2.045,2.045,0,0,1-.6-1.485,2.049,2.049,0,0,1,2.069-2.07A2.035,2.035,0,0,1,216.4,426.568Z" fill="#333"/></g></g><g id="text3454-3-0"><g style="isolation:isolate"><path d="M309.179,423.538h11.13v2.13h-11.13Zm0,5.67h11.13v2.13h-11.13Z" fill="#333"/></g></g><g id="text1360"><g style="isolation:isolate"><path d="M135.425,100.653a1.206,1.206,0,0,0,.595.423l-.378,1.152a2.523,2.523,0,0,1-1.188-.414,1.889,1.889,0,0,1-.666-1.008,3.185,3.185,0,0,1-2.827,1.422,3.028,3.028,0,0,1-2.213-.792,2.766,2.766,0,0,1-.81-2.07,2.718,2.718,0,0,1,1.088-2.322,5.1,5.1,0,0,1,3.087-.81h1.458v-.7a1.841,1.841,0,0,0-.486-1.44,2.2,2.2,0,0,0-1.494-.432,8.382,8.382,0,0,0-2.555.5l-.414-1.206a9.542,9.542,0,0,1,3.275-.648,3.422,3.422,0,0,1,2.5.819,3.134,3.134,0,0,1,.829,2.331V99.8A1.485,1.485,0,0,0,135.425,100.653Zm-1.854-1.143V97.332H132.33q-2.63,0-2.628,1.944a1.78,1.78,0,0,0,.413,1.278,1.619,1.619,0,0,0,1.224.432A2.472,2.472,0,0,0,133.571,99.51Z" fill="#333"/></g></g><g id="text1364"><g style="isolation:isolate"><path d="M161.771,93.615a6.08,6.08,0,0,1,.954,3.645,6.968,6.968,0,0,1-.45,2.6,3.9,3.9,0,0,1-1.3,1.746,3.256,3.256,0,0,1-1.98.621,3.135,3.135,0,0,1-2.52-1.26l-.162,1.044h-1.458V88.71l1.656-.2v5.2a3.174,3.174,0,0,1,2.682-1.4A3.025,3.025,0,0,1,161.771,93.615Zm-1.449,6.408a4.888,4.888,0,0,0,.621-2.763,5.126,5.126,0,0,0-.576-2.781,1.86,1.86,0,0,0-1.638-.855,2.683,2.683,0,0,0-2.214,1.476v4.536a2.94,2.94,0,0,0,.927.936,2.16,2.16,0,0,0,1.161.342A1.981,1.981,0,0,0,160.322,100.023Z" fill="#333"/></g></g><g id="text1368"><g style="isolation:isolate"><path d="M185.929,92.553a4.319,4.319,0,0,1,1.35.783l-.792,1.044a4.066,4.066,0,0,0-.981-.531,3.1,3.1,0,0,0-1.053-.171,2.058,2.058,0,0,0-1.791.918,4.76,4.76,0,0,0-.639,2.718,4.5,4.5,0,0,0,.63,2.655,2.1,2.1,0,0,0,1.8.855,2.946,2.946,0,0,0,1.026-.171,5.215,5.215,0,0,0,1.044-.549l.756,1.08a4.5,4.5,0,0,1-2.9,1.044,3.778,3.778,0,0,1-3.033-1.3,5.34,5.34,0,0,1-1.107-3.582,6.465,6.465,0,0,1,.5-2.646,4.071,4.071,0,0,1,1.431-1.764,3.835,3.835,0,0,1,2.205-.63A4.706,4.706,0,0,1,185.929,92.553Z" fill="#333"/></g></g><g id="text1372" style="isolation:isolate"><g style="isolation:isolate"><path d="M253.5,76.9a5.085,5.085,0,0,1-1.188.234q-.648.054-1.584.054a2.5,2.5,0,0,1,1.674,2.394,3.021,3.021,0,0,1-.972,2.322,3.742,3.742,0,0,1-2.646.9,3.9,3.9,0,0,1-1.206-.18,1.011,1.011,0,0,0-.342.387,1.052,1.052,0,0,0-.126.5q0,.774,1.242.774h1.512a4,4,0,0,1,1.692.342,2.742,2.742,0,0,1,1.143.936,2.34,2.34,0,0,1,.405,1.35,2.4,2.4,0,0,1-1.134,2.133,6.045,6.045,0,0,1-3.312.747,7.488,7.488,0,0,1-2.421-.315,2.3,2.3,0,0,1-1.269-.945,3.113,3.113,0,0,1-.378-1.62h1.494a1.656,1.656,0,0,0,.216.909,1.349,1.349,0,0,0,.774.5,5.673,5.673,0,0,0,1.584.171,4.521,4.521,0,0,0,2.133-.369,1.2,1.2,0,0,0,.639-1.107,1.142,1.142,0,0,0-.5-1.008,2.48,2.48,0,0,0-1.4-.342h-1.494a2.81,2.81,0,0,1-1.827-.513,1.6,1.6,0,0,1-.621-1.287,1.674,1.674,0,0,1,.27-.9,2.638,2.638,0,0,1,.774-.774,2.981,2.981,0,0,1-1.215-1.071,2.944,2.944,0,0,1-.387-1.557,3.137,3.137,0,0,1,.477-1.71,3.246,3.246,0,0,1,1.314-1.179,4.071,4.071,0,0,1,1.863-.423,13.152,13.152,0,0,0,1.872-.081,6.5,6.5,0,0,0,1.251-.27q.5-.171,1.215-.5Zm-6.273,1.125a2.574,2.574,0,0,0,.009,3.1,1.875,1.875,0,0,0,1.476.585,1.9,1.9,0,0,0,1.485-.567,2.291,2.291,0,0,0,.513-1.593,2.05,2.05,0,0,0-3.483-1.521Z" fill="#333"/></g></g><g id="text1376" style="isolation:isolate"><g style="isolation:isolate"><path d="M251.487,106.429a2.974,2.974,0,0,1,.729,2.124v6.8H250.56v-6.57a2.068,2.068,0,0,0-.387-1.422,1.465,1.465,0,0,0-1.125-.414,2.133,2.133,0,0,0-1.314.432,4.576,4.576,0,0,0-1.08,1.224v6.75H245V102.073l1.656-.18v5.292a3.357,3.357,0,0,1,2.808-1.53A2.647,2.647,0,0,1,251.487,106.429Z" fill="#333"/></g></g><g id="text1380" style="isolation:isolate"><g style="isolation:isolate"><path d="M249.572,127.369a1.1,1.1,0,0,1,.324.81,1.069,1.069,0,0,1-.324.8,1.162,1.162,0,0,1-.846.315,1.139,1.139,0,0,1-.828-.315,1.069,1.069,0,0,1-.324-.8,1.1,1.1,0,0,1,.324-.81,1.121,1.121,0,0,1,.828-.324A1.144,1.144,0,0,1,249.572,127.369Zm0,13.716h-1.656V131.6h1.656Z" fill="#333"/></g></g><g id="Bildmaterial_154" data-name="Bildmaterial 154"><path d="M422.312,55.524c.42,7.135-9.023,6.506-9.023,6.506h-56.51c-4.407.419-5.546,12.277-5.546,12.277s-1.37-12.068-6.206-12.068h-56.51s-7.344-.209-7.344-6.715" fill="none" stroke="#333"/></g><path d="M293.441,50.6a1.207,1.207,0,0,0,.594.423l-.378,1.152a2.527,2.527,0,0,1-1.187-.414,1.889,1.889,0,0,1-.666-1.008,3.183,3.183,0,0,1-2.826,1.422,3.031,3.031,0,0,1-2.214-.792,2.767,2.767,0,0,1-.811-2.07,2.717,2.717,0,0,1,1.09-2.322,5.1,5.1,0,0,1,3.087-.81h1.458v-.7a1.845,1.845,0,0,0-.486-1.44,2.2,2.2,0,0,0-1.495-.432,8.351,8.351,0,0,0-2.555.5l-.414-1.206a9.537,9.537,0,0,1,3.275-.648,3.428,3.428,0,0,1,2.5.819,3.133,3.133,0,0,1,.827,2.331v4.338A1.5,1.5,0,0,0,293.441,50.6Zm-1.853-1.143V47.277h-1.242q-2.628,0-2.628,1.944a1.775,1.775,0,0,0,.414,1.278,1.615,1.615,0,0,0,1.223.432A2.472,2.472,0,0,0,291.588,49.455Z" fill="#333"/><path d="M302.747,45.477a1.2,1.2,0,0,1,.36.882,1.229,1.229,0,0,1-.36.891,1.206,1.206,0,0,1-.9.369,1.185,1.185,0,0,1-.882-.369,1.229,1.229,0,0,1-.36-.891,1.229,1.229,0,0,1,1.242-1.242A1.221,1.221,0,0,1,302.747,45.477Z" fill="#333"/><path d="M318.155,42.9a5.1,5.1,0,0,1-1.188.234q-.648.054-1.584.054a2.5,2.5,0,0,1,1.674,2.394,3.021,3.021,0,0,1-.972,2.322,3.743,3.743,0,0,1-2.647.9,3.9,3.9,0,0,1-1.2-.18,1.019,1.019,0,0,0-.342.387,1.064,1.064,0,0,0-.126.495q0,.774,1.242.774h1.512a3.982,3.982,0,0,1,1.692.342,2.736,2.736,0,0,1,1.143.936,2.34,2.34,0,0,1,.405,1.35,2.4,2.4,0,0,1-1.134,2.133,6.044,6.044,0,0,1-3.313.747,7.485,7.485,0,0,1-2.42-.315,2.3,2.3,0,0,1-1.269-.945,3.113,3.113,0,0,1-.378-1.62h1.494a1.656,1.656,0,0,0,.216.909,1.346,1.346,0,0,0,.774.5,5.675,5.675,0,0,0,1.583.171,4.521,4.521,0,0,0,2.134-.369,1.2,1.2,0,0,0,.639-1.107,1.14,1.14,0,0,0-.5-1.008,2.48,2.48,0,0,0-1.4-.342h-1.494a2.815,2.815,0,0,1-1.828-.513,1.6,1.6,0,0,1-.62-1.287,1.674,1.674,0,0,1,.27-.9,2.626,2.626,0,0,1,.774-.774,2.7,2.7,0,0,1-1.6-2.628,3.137,3.137,0,0,1,.477-1.71,3.252,3.252,0,0,1,1.314-1.179,4.068,4.068,0,0,1,1.863-.423,13.152,13.152,0,0,0,1.872-.081,6.487,6.487,0,0,0,1.251-.27c.33-.114.734-.279,1.215-.5Zm-6.273,1.125a2.574,2.574,0,0,0,.009,3.1,1.874,1.874,0,0,0,1.476.585,1.9,1.9,0,0,0,1.485-.567,2.291,2.291,0,0,0,.513-1.593,2.05,2.05,0,0,0-3.483-1.521Z" fill="#333"/><path d="M328.163,45.315h2.628v1.368h-2.628v2.682H326.65V46.683h-2.609V45.315h2.609v-2.7h1.513Z" fill="#333"/><path d="M345.3,43.56a6.08,6.08,0,0,1,.954,3.645,6.968,6.968,0,0,1-.45,2.6,3.9,3.9,0,0,1-1.3,1.746,3.259,3.259,0,0,1-1.981.621,3.132,3.132,0,0,1-2.519-1.26l-.162,1.044h-1.458v-13.3l1.656-.2v5.2a3.173,3.173,0,0,1,2.682-1.4A3.027,3.027,0,0,1,345.3,43.56Zm-1.449,6.408a4.888,4.888,0,0,0,.621-2.763,5.135,5.135,0,0,0-.576-2.781,1.86,1.86,0,0,0-1.638-.855,2.683,2.683,0,0,0-2.214,1.476v4.536a2.94,2.94,0,0,0,.927.936,2.16,2.16,0,0,0,1.161.342A1.982,1.982,0,0,0,343.85,49.968Z" fill="#333"/><path d="M355.181,45.477a1.2,1.2,0,0,1,.36.882,1.229,1.229,0,0,1-.36.891,1.208,1.208,0,0,1-.9.369,1.188,1.188,0,0,1-.882-.369,1.229,1.229,0,0,1-.359-.891,1.228,1.228,0,0,1,1.241-1.242A1.223,1.223,0,0,1,355.181,45.477Z" fill="#333"/><path d="M369.428,43.029a2.978,2.978,0,0,1,.728,2.124v6.8H368.5v-6.57a2.068,2.068,0,0,0-.388-1.422,1.465,1.465,0,0,0-1.125-.414,2.13,2.13,0,0,0-1.313.432,4.559,4.559,0,0,0-1.08,1.224v6.75h-1.657V38.673l1.657-.18v5.292a3.355,3.355,0,0,1,2.807-1.53A2.649,2.649,0,0,1,369.428,43.029Z" fill="#333"/><path d="M381.785,45.315h2.628v1.368h-2.628v2.682h-1.513V46.683h-2.609V45.315h2.609v-2.7h1.513Z" fill="#333"/><path d="M397.013,42.5a4.33,4.33,0,0,1,1.35.783l-.792,1.044a4.1,4.1,0,0,0-.981-.531,3.105,3.105,0,0,0-1.053-.171,2.058,2.058,0,0,0-1.791.918,4.752,4.752,0,0,0-.64,2.718,4.489,4.489,0,0,0,.631,2.655,2.1,2.1,0,0,0,1.8.855,2.963,2.963,0,0,0,1.025-.171,5.162,5.162,0,0,0,1.044-.549l.757,1.08a4.5,4.5,0,0,1-2.9,1.044,3.778,3.778,0,0,1-3.033-1.3,5.336,5.336,0,0,1-1.107-3.582,6.465,6.465,0,0,1,.5-2.646,4.071,4.071,0,0,1,1.431-1.764,3.826,3.826,0,0,1,2.2-.63A4.711,4.711,0,0,1,397.013,42.5Z" fill="#333"/><path d="M406.714,45.477a1.2,1.2,0,0,1,.36.882,1.229,1.229,0,0,1-.36.891,1.206,1.206,0,0,1-.9.369,1.184,1.184,0,0,1-.881-.369,1.225,1.225,0,0,1-.36-.891,1.229,1.229,0,0,1,1.241-1.242A1.222,1.222,0,0,1,406.714,45.477Z" fill="#333"/><path d="M416.128,38.241a1.1,1.1,0,0,1,.324.81,1.069,1.069,0,0,1-.324.8,1.163,1.163,0,0,1-.847.315,1.136,1.136,0,0,1-.827-.315,1.066,1.066,0,0,1-.324-.8,1.1,1.1,0,0,1,.324-.81,1.119,1.119,0,0,1,.827-.324A1.145,1.145,0,0,1,416.128,38.241Zm0,13.716h-1.656V42.471h1.656Z" fill="#333"/></g></svg>